SplineFontDB: 3.0
FontName: Renner*-Medium-Italic
FullName: Renner* Medium Italic
FamilyName: Renner*-Medium
Weight: Medium
Copyright: This typeface is licensed under the SIL open font license.
UComments: "2015-9-7: Created with FontForge (http://fontforge.org)"
FontLog: "This is version 1. Font is original (not based on another digital typeface). Inspiration was taken from the American Type Founders +ACIA-Spartan+ACIA, but Renner* is not identical. No updates have been made yet."
Version: 001.000
ItalicAngle: -8
UnderlinePosition: -100
UnderlineWidth: 50
Ascent: 800
Descent: 200
InvalidEm: 0
LayerCount: 2
Layer: 0 0 "Back" 1
Layer: 1 0 "Fore" 0
XUID: [1021 266 -223186452 810138]
FSType: 0
OS2Version: 0
OS2_WeightWidthSlopeOnly: 0
OS2_UseTypoMetrics: 1
CreationTime: 1441634143
ModificationTime: 1452987971
PfmFamily: 17
TTFWeight: 500
TTFWidth: 5
LineGap: 100
VLineGap: 0
OS2TypoAscent: 800
OS2TypoAOffset: 0
OS2TypoDescent: -200
OS2TypoDOffset: 0
OS2TypoLinegap: 100
OS2WinAscent: 900
OS2WinAOffset: 0
OS2WinDescent: 300
OS2WinDOffset: 0
HheadAscent: 900
HheadAOffset: 0
HheadDescent: -200
HheadDOffset: 0
OS2CapHeight: 730
OS2XHeight: 526
OS2Vendor: 'PfEd'
Lookup: 258 0 0 "Pairwise Positioning (kerning) in Latin lookup 0" { "Pairwise Positioning (kerning) in Latin lookup 0-1" [140,0,0] } ['kern' ('DFLT' <'dflt' > 'latn' <'dflt' > ) ]
MarkAttachClasses: 1
DEI: 91125
KernClass2: 11 13 "Pairwise Positioning (kerning) in Latin lookup 0-1"
 5 A L M
 7 D O Q G
 7 F V Y W
 7 b e o p
 3 K X
 1 T
 19 a c g h i j m n q u
 3 k x
 7 r v y w
 1 s
 3 A M
 7 C G O Q
 1 T
 3 V W
 3 X Y
 13 c d e g o q a
 3 i j
 11 m n p r u z
 1 s
 5 v w y
 1 x
 1 U

StartChar: I
Encoding: 73 73 0
Width: 265
VWidth: 0
Flags: W
HStem: 0 21G<76 191.822> 710 20G<176.178 292>
VStem: 76 216
DStem2: 76 0 189 0 0.139712 0.990192<15.7875 737.231>
LayerCount: 2
Fore
SplineSet
76 0 m 1
 179 730 l 1
 292 730 l 5
 189 0 l 5
 76 0 l 1
EndSplineSet
EndChar

StartChar: t
Encoding: 116 116 1
Width: 293
VWidth: 0
Flags: HW
LayerCount: 2
Fore
SplineSet
68 419 m 5
 83 526 l 1
 352 526 l 1
 337 419 l 5
 68 419 l 5
88 0 m 1
 186 700 l 1
 299 700 l 1
 200 0 l 1
 88 0 l 1
EndSplineSet
EndChar

StartChar: l
Encoding: 108 108 2
Width: 287
VWidth: 0
Flags: HW
LayerCount: 2
Fore
SplineSet
66 0 m 1
 192 894 l 5
 305 894 l 5
 180 0 l 1
 66 0 l 1
EndSplineSet
EndChar

StartChar: i
Encoding: 105 105 3
Width: 322
VWidth: 0
Flags: W
HStem: 0 21G<84 198.814> 506 20G<155.186 270> 664 148<199.78 288.988>
VStem: 170 148<693.668 782.332>
LayerCount: 2
Fore
SplineSet
170 738 m 4
 176 779 214 812 255 812 c 4
 296 812 324 779 318 738 c 4
 312 697 275 664 234 664 c 4
 193 664 164 697 170 738 c 4
84 0 m 1
 158 526 l 1
 270 526 l 1
 196 0 l 1
 84 0 l 1
EndSplineSet
EndChar

StartChar: o
Encoding: 111 111 4
Width: 625
VWidth: 0
Flags: W
HStem: -12 108<241.037 398.387> 430 108<282.32 439.704>
LayerCount: 2
Fore
SplineSet
178 263 m 4
 165 172 224 96 317 96 c 4
 410 96 488 172 501 263 c 4
 514 354 457 430 364 430 c 4
 271 430 191 354 178 263 c 4
65 263 m 4
 86 414 228 538 379 538 c 4
 530 538 636 414 615 263 c 4
 594 112 453 -12 302 -12 c 4
 151 -12 44 112 65 263 c 4
EndSplineSet
EndChar

StartChar: H
Encoding: 72 72 6
Width: 724
VWidth: 0
Flags: HW
LayerCount: 2
Fore
SplineSet
224 319 m 1xec
 239 427 l 1
 596 427 l 1
 581 319 l 1
 224 319 l 1xec
536 0 m 1
 639 730 l 1
 751 730 l 1
 648 0 l 1
 536 0 l 1
76 0 m 1xf4
 179 730 l 1
 291 730 l 1
 188 0 l 1
 76 0 l 1xf4
EndSplineSet
EndChar

StartChar: E
Encoding: 69 69 7
Width: 595
VWidth: 0
Flags: W
HStem: 0 107<185 548> 319 108<230 484> 623 107<282 635>
DStem2: 66 0 170 0 0.139712 0.990192<14.5301 122.576 336.549 445.725 643.575 737.231>
LayerCount: 2
Fore
SplineSet
170 0 m 1
 185 107 l 5
 563 107 l 5
 548 0 l 1
 170 0 l 1
257 623 m 1
 272 730 l 1
 650 730 l 1
 635 623 l 1
 257 623 l 1
214 319 m 1
 230 427 l 1
 500 427 l 1
 484 319 l 1
 214 319 l 1
66 0 m 1
 169 730 l 1
 282 730 l 1
 180 0 l 1
 66 0 l 1
EndSplineSet
EndChar

StartChar: F
Encoding: 70 70 8
Width: 574
VWidth: 0
Flags: HW
LayerCount: 2
Fore
SplineSet
257 623 m 1xe8
 272 730 l 1
 629 730 l 1
 614 623 l 1
 257 623 l 1xe8
214 319 m 5
 230 427 l 5
 479 427 l 5
 463 319 l 5
 214 319 l 5
66 0 m 1xf0
 169 730 l 1xf0
 282 730 l 1xe8
 180 0 l 1
 66 0 l 1xf0
EndSplineSet
EndChar

StartChar: M
Encoding: 77 77 9
Width: 761
VWidth: 0
Flags: W
HStem: 0 21G<10 134.869 376.718 395.321 644 752> 737 20G<282.602 295.23 739.24 752>
VStem: 644 108<0 144.345> 673 78<453.655 598>
LayerCount: 2
Fore
SplineSet
382 0 m 1xc0
 232 568 l 1
 290 757 l 1
 449 149 l 5
 382 0 l 1xc0
10 0 m 1
 290 757 l 1
 332 594 l 1
 128 0 l 1
 10 0 l 1
644 0 m 1xe0
 673 598 l 1xd0
 752 757 l 1
 752 0 l 1
 644 0 l 1xe0
366 152 m 1
 752 757 l 1xe0
 751 554 l 1
 382 0 l 1
 366 152 l 1
EndSplineSet
EndChar

StartChar: N
Encoding: 78 78 10
Width: 779
VWidth: 0
Flags: W
HStem: 0 21G<76 191.812 682.588 705.822> 730 7G<176.178 199.412 690.188 806>
VStem: 76 113<0 49.6117> 693 113<680.388 730>
LayerCount: 2
Fore
SplineSet
699 -27 m 1
 160 601 l 1
 182 757 l 1
 721 129 l 5
 699 -27 l 1
604 97 m 1
 693 730 l 1
 806 730 l 1
 703 0 l 1
 604 97 l 1
76 0 m 1
 179 730 l 1
 278 633 l 1
 189 0 l 1
 76 0 l 1
EndSplineSet
EndChar

StartChar: O
Encoding: 79 79 11
Width: 810
VWidth: 0
Flags: W
HStem: -11 113<320.32 526.347> 629 113<387.521 593.575>
LayerCount: 2
Fore
SplineSet
198 366 m 4
 177 216 273 102 420 102 c 4
 567 102 694 216 715 366 c 4
 736 516 641 629 494 629 c 4
 347 629 219 516 198 366 c 4
80 366 m 0
 109 574 302 742 510 742 c 0
 718 742 862 574 833 366 c 0
 804 158 612 -11 404 -11 c 0
 196 -11 51 158 80 366 c 0
EndSplineSet
EndChar

StartChar: T
Encoding: 84 84 12
Width: 597
VWidth: 0
Flags: HW
LayerCount: 2
Fore
SplineSet
97 623 m 1xd0
 112 730 l 1
 690 730 l 1
 675 623 l 1
 97 623 l 1xd0
242 0 m 1
 334 654 l 1
 446 654 l 1xb0
 354 0 l 1
 242 0 l 1
EndSplineSet
EndChar

StartChar: A
Encoding: 65 65 13
Width: 668
VWidth: 0
Flags: W
HStem: 0 21G<10 138.723 534.867 658> 184 107<185 549> 737 20G<428.639 445.76>
LayerCount: 2
Fore
SplineSet
10 0 m 1
 440 757 l 1
 469 636 l 1
 128 0 l 1
 10 0 l 1
170 184 m 1
 185 291 l 5
 564 291 l 5
 549 184 l 1
 170 184 l 1
540 0 m 1
 376 639 l 1
 440 757 l 1
 658 0 l 1
 540 0 l 1
EndSplineSet
EndChar

StartChar: c
Encoding: 99 99 14
Width: 536
VWidth: 0
Flags: W
HStem: -12 108<246.037 432.232> 430 108<287.32 472.967>
LayerCount: 2
Fore
SplineSet
183 263 m 4
 170 172 229 96 322 96 c 4
 378 96 439 112 485 148 c 5
 468 24 l 5
 417 0 361 -12 307 -12 c 4
 156 -12 49 112 70 263 c 4
 91 414 233 538 384 538 c 4
 438 538 490 526 535 502 c 5
 517 378 l 5
 481 414 425 430 369 430 c 4
 276 430 196 354 183 263 c 4
EndSplineSet
EndChar

StartChar: C
Encoding: 67 67 15
Width: 680
VWidth: 0
Flags: W
HStem: -11 113<316.442 534.153> 629 113<383.446 615.875>
LayerCount: 2
Fore
SplineSet
198 366 m 4
 176 211 268 102 420 102 c 0
 497 102 574 125 637 169 c 1
 620 47 l 1
 552 10 478 -11 404 -11 c 0
 196 -11 51 158 80 366 c 0
 109 574 302 742 510 742 c 0
 584 742 652 721 710 684 c 1
 693 563 l 1
 642 607 571 629 494 629 c 0
 342 629 220 521 198 366 c 4
EndSplineSet
EndChar

StartChar: G
Encoding: 71 71 16
Width: 818
VWidth: 0
Flags: HW
LayerCount: 2
Fore
SplineSet
471 277 m 5
 486 384 l 1
 813 384 l 1
 798 277 l 5
 471 277 l 5
198 366 m 0
 176 211 268 102 420 102 c 0
 572 102 682 211 704 366 c 0
 705 372 704 378 705 384 c 1
 824 384 l 1
 823 378 823 372 822 366 c 0
 793 158 612 -11 404 -11 c 0
 196 -11 51 158 80 366 c 0
 109 574 302 742 510 742 c 0
 610 742 695 703 753 639 c 1
 684 547 l 1
 640 595 571 629 494 629 c 0
 342 629 220 521 198 366 c 0
EndSplineSet
EndChar

StartChar: J
Encoding: 74 74 17
Width: 523
VWidth: 0
Flags: HW
LayerCount: 2
Fore
SplineSet
369 249 m 1
 437 730 l 1
 550 730 l 1
 482 249 l 1
 369 249 l 1
369 249 m 1
 482 249 l 1
 461 101 361 -11 197 -11 c 0
 69 -11 5 54 -10 134 c 1
 81 191 l 5
 100 146 120 97 212 97 c 4
 323 97 357 167 369 249 c 1
EndSplineSet
EndChar

StartChar: b
Encoding: 98 98 18
Width: 681
VWidth: 0
Flags: HW
LayerCount: 2
Fore
SplineSet
66 0 m 1x7a
 192 894 l 5
 305 894 l 5x7a
 180 0 l 1x76
 66 0 l 1x7a
216 263 m 0
 203 172 262 96 355 96 c 0xba
 448 96 526 172 539 263 c 0
 552 354 495 430 402 430 c 0
 309 430 229 354 216 263 c 0
162 263 m 0xb6
 180 394 278 538 439 538 c 0
 569 538 674 414 653 263 c 0
 632 112 492 -12 362 -12 c 0
 201 -12 144 132 162 263 c 0xb6
EndSplineSet
EndChar

StartChar: u
Encoding: 117 117 19
Width: 664
VWidth: 0
Flags: W
HStem: -12 108<235.838 368.036> 0 21G<442 558.814> 506 20G<137.214 253 513.186 630>
DStem2: 95 203 208 203 0.137986 0.990434<-47.6068 326.12> 442 0 556 0 0.139313 0.990248<271.72 531.18>
LayerCount: 2
Fore
SplineSet
630 526 m 1x60
 556 0 l 1
 442 0 l 1
 516 526 l 1
 630 526 l 1x60
208 203 m 1
 95 203 l 1
 140 526 l 1
 253 526 l 1
 208 203 l 1
208 203 m 5
 199 142 232 96 307 96 c 4
 412 96 465 160 479 263 c 5
 523 263 l 1
 506 141 430 -12 279 -12 c 4xa0
 157 -12 76 69 95 203 c 1
 208 203 l 5
EndSplineSet
EndChar

StartChar: d
Encoding: 100 100 20
Width: 681
VWidth: 0
Flags: HW
LayerCount: 2
Fore
SplineSet
583 0 m 5x7c
 469 0 l 5x7a
 595 894 l 5
 709 894 l 5
 583 0 l 5x7c
506 263 m 4xbc
 519 354 462 430 369 430 c 4
 276 430 196 354 183 263 c 4
 170 172 229 96 322 96 c 4
 427 96 493 172 506 263 c 4xbc
565 263 m 4xba
 550 155 456 -12 285 -12 c 4
 155 -12 49 112 70 263 c 4
 91 414 232 538 362 538 c 4
 533 538 580 371 565 263 c 4xba
EndSplineSet
EndChar

StartChar: e
Encoding: 101 101 21
Width: 625
VWidth: 0
Flags: W
HStem: -12 108<246.037 420.161> 227 90<131 550> 239 24<70 158> 430 108<287.32 439.83>
DStem2: 70 263 118 227 0.142961 0.989728<-28.0365 62.1659> 550 227 602 227 0.142961 0.989728<7.43396 85.5885>
LayerCount: 2
Fore
SplineSet
183 263 m 1xb0
 170 172 229 96 322 96 c 0
 374 96 441 111 489 157 c 1
 535 75 l 1
 471 22 387 -12 307 -12 c 0
 156 -12 49 112 70 263 c 1
 183 263 l 1xb0
70 263 m 0
 91 414 233 538 384 538 c 0
 535 538 629 414 608 263 c 0xb0
 607 255 604 235 602 227 c 5
 488 227 l 5xd0
 490 235 493 255 494 263 c 0
 507 354 462 430 369 430 c 0
 276 430 196 354 183 263 c 0
 182 255 158 247 158 239 c 1
 68 239 l 1
 68 247 69 255 70 263 c 0
118 227 m 1xd0
 131 317 l 1
 563 317 l 1
 550 227 l 1
 118 227 l 1xd0
EndSplineSet
EndChar

StartChar: a
Encoding: 97 97 22
Width: 681
VWidth: 0
Flags: W
HStem: -12 108<247.544 385.653> 0 21G<469 585.835> 430 108<287.924 445.061>
DStem2: 469 0 583 0 0.140359 0.990101<273.871 527.219>
LayerCount: 2
Fore
SplineSet
583 0 m 1x60
 469 0 l 1
 543 522 l 5
 657 522 l 5
 583 0 l 1x60
506 263 m 0
 519 354 462 430 369 430 c 0
 276 430 196 354 183 263 c 0
 170 172 229 96 322 96 c 0xa0
 427 96 493 172 506 263 c 0
565 263 m 0
 550 155 456 -12 285 -12 c 0
 155 -12 49 112 70 263 c 0
 91 414 232 538 362 538 c 0
 533 538 580 371 565 263 c 0
EndSplineSet
EndChar

StartChar: h
Encoding: 104 104 23
Width: 687
VWidth: 0
Flags: HW
LayerCount: 2
Fore
SplineSet
510 311 m 1xe4
 623 311 l 1
 580 0 l 1
 466 0 l 1
 510 311 l 1xe4
66 0 m 1xf4
 192 894 l 5
 305 894 l 5
 180 0 l 1
 66 0 l 1xf4
510 311 m 1
 519 372 477 430 402 430 c 0
 309 430 230 366 216 263 c 1xf4
 172 263 l 1xec
 189 385 266 538 417 538 c 0
 551 538 644 457 623 311 c 1
 510 311 l 1
EndSplineSet
EndChar

StartChar: m
Encoding: 109 109 24
Width: 993
VWidth: 0
Flags: HW
LayerCount: 2
Fore
SplineSet
818 323 m 1xc080
 931 323 l 1
 886 0 l 1
 772 0 l 1
 818 323 l 1xc080
818 323 m 1
 827 384 786 430 725 430 c 0
 647 430 584 366 570 263 c 1xe280
 490 263 l 5
 504 365 603 538 760 538 c 4xe180
 859 538 950 457 931 323 c 1
 818 323 l 1
66 0 m 1xd880
 140 526 l 1
 254 526 l 1
 180 0 l 1
 66 0 l 1xd880
466 323 m 1xc280
 579 323 l 1
 534 0 l 1
 420 0 l 1
 466 323 l 1xc280
466 323 m 1
 476 396 434 430 373 430 c 0
 282 430 231 366 217 263 c 1xea80
 173 263 l 5
 187 365 263 538 420 538 c 4
 519 538 585 457 566 323 c 1xe580
 466 323 l 1
EndSplineSet
EndChar

StartChar: n
Encoding: 110 110 25
Width: 687
VWidth: 0
Flags: W
HStem: 0 21G<66 182.776 466 582.786> 430 108<351.901 484.692> 506 20G<137.186 253>
DStem2: 466 0 580 0 0.140992 0.990011<16.0731 389.788>
LayerCount: 2
Fore
SplineSet
66 0 m 1xa0
 140 526 l 1
 253 526 l 1
 180 0 l 1
 66 0 l 1xa0
512 323 m 1
 625 323 l 1
 580 0 l 1
 466 0 l 1
 512 323 l 1
512 323 m 1
 521 384 489 430 414 430 c 0
 309 430 230 366 216 263 c 1
 172 263 l 5
 186 365 278 538 449 538 c 4xc0
 563 538 644 457 625 323 c 1
 512 323 l 1
EndSplineSet
EndChar

StartChar: y
Encoding: 121 121 26
Width: 506
VWidth: 0
Flags: W
HStem: 506 20G<74 191.734 458.807 580>
LayerCount: 2
Fore
SplineSet
15 -287 m 5
 470 526 l 1
 580 526 l 1
 126 -287 l 5
 15 -287 l 5
211 48 m 1
 74 526 l 1
 186 526 l 1
 313 83 l 1
 211 48 l 1
EndSplineSet
EndChar

StartChar: q
Encoding: 113 113 27
Width: 675
VWidth: 0
Flags: HW
LayerCount: 2
Fore
SplineSet
501 263 m 4xd8
 514 354 457 430 364 430 c 4
 271 430 191 354 178 263 c 4
 165 172 224 96 317 96 c 4
 422 96 488 172 501 263 c 4xd8
560 263 m 4xd4
 545 155 451 -12 280 -12 c 4
 150 -12 44 112 65 263 c 4
 86 414 227 538 357 538 c 4
 528 538 575 371 560 263 c 4xd4
652 526 m 1xb8
 540 -275 l 1
 426 -275 l 1
 538 526 l 1
 652 526 l 1xb8
EndSplineSet
EndChar

StartChar: p
Encoding: 112 112 28
Width: 675
VWidth: 0
Flags: HW
LayerCount: 2
Fore
SplineSet
140 526 m 1xb4
 253 526 l 1
 141 -275 l 1
 28 -275 l 1
 140 526 l 1xb4
216 263 m 0
 203 172 262 96 355 96 c 0
 448 96 526 172 539 263 c 0
 552 354 495 430 402 430 c 0xd4
 309 430 229 354 216 263 c 0
172 263 m 0xcc
 193 414 278 538 429 538 c 0
 569 538 674 414 653 263 c 0
 632 112 492 -12 352 -12 c 0
 201 -12 151 112 172 263 c 0xcc
EndSplineSet
EndChar

StartChar: j
Encoding: 106 106 29
Width: 295
VWidth: 0
Flags: HW
LayerCount: 2
Fore
SplineSet
-1 -179 m 5xf0
 -17 -287 l 5
 -83 -287 -107 -250 -107 -250 c 5
 -93 -145 l 5
 -93 -145 -57 -179 -1 -179 c 5xf0
-1 -179 m 5
 56 -179 82 -145 92 -72 c 5
 200 -96 l 5xf4
 181 -230 87 -287 -17 -287 c 5
 -1 -179 l 5
188 738 m 0xf8
 194 779 231 812 272 812 c 0
 313 812 342 779 336 738 c 0
 330 697 292 664 251 664 c 0
 210 664 182 697 188 738 c 0xf8
88 -96 m 5xf4
 176 526 l 1
 288 526 l 1
 200 -96 l 5
 88 -96 l 5xf4
EndSplineSet
EndChar

StartChar: L
Encoding: 76 76 30
Width: 557
VWidth: 0
Flags: HW
LayerCount: 2
Fore
SplineSet
170 0 m 1xd0
 185 107 l 5
 563 107 l 5
 548 0 l 1
 170 0 l 1xd0
66 0 m 1xe0
 169 730 l 1
 282 730 l 1xe0
 180 0 l 1xd0
 66 0 l 1xe0
EndSplineSet
EndChar

StartChar: D
Encoding: 68 68 31
Width: 727
VWidth: 0
Flags: HW
LayerCount: 2
Fore
SplineSet
272 730 m 1xd8
 416 730 l 1
 400 617 l 1xe8
 256 617 l 1
 272 730 l 1xd8
170 0 m 1xd8
 185 113 l 1xd8
 329 113 l 1
 314 0 l 1xe8
 170 0 l 1xd8
66 0 m 1xe8
 169 730 l 1xe8
 282 730 l 1
 180 0 l 1xd8
 66 0 l 1xe8
400 617 m 1
 416 730 l 1
 624 730 770 574 741 366 c 0
 712 158 522 0 314 0 c 1
 329 113 l 1
 481 113 601 211 623 366 c 4
 645 521 552 617 400 617 c 1
EndSplineSet
EndChar

StartChar: R
Encoding: 82 82 32
Width: 609
VWidth: 0
Flags: HW
LayerCount: 2
Fore
SplineSet
412 730 m 1xd1
 550 730 628 633 609 495 c 0
 590 357 483 256 345 256 c 1
 351 363 l 1
 426 363 485 415 496 495 c 0
 507 575 472 623 387 623 c 1
 412 730 l 1xd1
178 256 m 1xd5
 194 363 l 1
 351 363 l 1
 345 256 l 1
 178 256 l 1xd5
246 623 m 1x93
 261 730 l 1
 412 730 l 1
 387 623 l 1
 246 623 l 1x93
440 0 m 5
 261 324 l 5
 392 324 l 1xb1
 572 0 l 1
 440 0 l 5
66 0 m 1x99
 169 730 l 1x99
 282 730 l 1x93
 180 0 l 1
 66 0 l 1x99
EndSplineSet
EndChar

StartChar: V
Encoding: 86 86 33
Width: 668
VWidth: 0
Flags: HW
LayerCount: 2
Fore
SplineSet
761 730 m 1
 330 -27 l 1
 295 114 l 1
 643 730 l 1
 761 730 l 1
230 730 m 1
 406 111 l 1
 330 -27 l 1
 112 730 l 1
 230 730 l 1
EndSplineSet
EndChar

StartChar: f
Encoding: 102 102 34
Width: 377
VWidth: 0
Flags: HW
LayerCount: 2
Fore
SplineSet
78 419 m 1
 93 526 l 1
 434 526 l 1
 419 419 l 1
 78 419 l 1
97 0 m 1
 197 715 l 5
 307 692 l 5
 210 0 l 1
 97 0 l 1
400 799 m 5
 415 906 l 5
 481 906 506 870 506 870 c 5
 491 763 l 5
 491 763 456 799 400 799 c 5
400 799 m 5
 343 799 317 765 307 692 c 5
 197 715 l 5
 216 849 311 906 415 906 c 5
 400 799 l 5
EndSplineSet
EndChar

StartChar: r
Encoding: 114 114 35
Width: 468
VWidth: 0
Flags: HW
LayerCount: 2
Fore
SplineSet
515 479 m 1xc8
 461 386 l 1
 461 386 444 430 367 430 c 0
 285 430 230 366 216 263 c 1xd0
 176 287 l 5
 189 379 254 538 392 538 c 4
 488 538 515 479 515 479 c 1xc8
253 526 m 1xb0
 180 0 l 1
 66 0 l 1
 140 526 l 1
 253 526 l 1xb0
EndSplineSet
EndChar

StartChar: g
Encoding: 103 103 36
Width: 651
VWidth: 0
Flags: HW
LayerCount: 2
Fore
SplineSet
439 -12 m 1xd3
 553 -12 l 1
 532 -163 432 -287 251 -287 c 0
 110 -287 40 -215 23 -127 c 1
 125 -87 l 1
 144 -149 164 -179 266 -179 c 0
 389 -179 426 -103 439 -12 c 1xd3
553 -12 m 1
 439 -12 l 1
 514 526 l 1
 628 526 l 1xd7
 553 -12 l 1
480 281 m 0
 493 372 445 430 352 430 c 0x9b
 259 430 195 372 182 281 c 0
 169 190 217 132 310 132 c 0
 403 132 467 190 480 281 c 0
526 281 m 0x9a80
 511 173 434 24 273 24 c 4
 143 24 47 130 68 281 c 0
 89 432 215 538 345 538 c 4
 506 538 541 389 526 281 c 0x9a80
EndSplineSet
EndChar

StartChar: period
Encoding: 46 46 37
Width: 277
VWidth: 0
Flags: HW
LayerCount: 2
Fore
SplineSet
80 56 m 4
 85 93 119 123 156 123 c 4
 193 123 219 93 214 56 c 4
 209 19 175 -11 138 -11 c 4
 101 -11 75 19 80 56 c 4
EndSplineSet
EndChar

StartChar: s
Encoding: 115 115 38
Width: 493
VWidth: 0
Flags: HW
LayerCount: 2
Fore
SplineSet
107 388 m 1
 120 480 215 538 331 538 c 0
 421 538 497 477 497 477 c 1
 429 381 l 1
 429 381 379 434 310 434 c 0
 258 434 226 418 222 390 c 5
 107 388 l 1
468 156 m 1
 452 40 364 -12 248 -12 c 0
 110 -12 40 84 40 84 c 1
 118 174 l 1
 118 174 171 94 257 94 c 0
 322 94 350 113 356 156 c 1
 468 156 l 1
270 225 m 0
 196 238 92 282 107 388 c 1
 222 390 l 5
 217 355 240 340 303 326 c 0
 385 308 484 268 468 156 c 1
 356 156 l 1
 361 191 333 214 270 225 c 0
EndSplineSet
EndChar

StartChar: k
Encoding: 107 107 39
Width: 545
VWidth: 0
Flags: HW
LayerCount: 2
Fore
SplineSet
364 0 m 1
 173 287 l 1
 333 287 l 1
 524 0 l 1
 364 0 l 1
184 287 m 1
 420 526 l 1
 575 526 l 1
 333 287 l 1
 184 287 l 1
66 0 m 1
 185 846 l 5
 298 846 l 5
 180 0 l 1
 66 0 l 1
EndSplineSet
EndChar

StartChar: v
Encoding: 118 118 40
Width: 518
VWidth: 0
Flags: HW
LayerCount: 2
Fore
SplineSet
256 -30 m 1
 249 124 l 1
 243 124 l 1
 465 526 l 5
 588 526 l 5
 256 -30 l 1
256 -30 m 1
 79 526 l 1
 203 526 l 1
 310 127 l 1
 305 127 l 1
 256 -30 l 1
EndSplineSet
EndChar

StartChar: w
Encoding: 119 119 41
Width: 795
VWidth: 0
Flags: HW
LayerCount: 2
Fore
SplineSet
563 -30 m 5
 555 113 l 5
 524 113 l 5
 729 526 l 5
 854 526 l 5
 563 -30 l 5
563 -30 m 5
 404 430 l 1
 418 454 l 1
 474 556 l 1
 617 115 l 5
 607 91 l 5
 563 -30 l 5
218 -30 m 1
 219 88 l 1
 204 113 l 1
 474 556 l 1
 492 442 l 1
 500 419 l 1
 218 -30 l 1
218 -30 m 1
 83 526 l 1
 207 526 l 1
 296 115 l 1
 266 115 l 1
 218 -30 l 1
EndSplineSet
EndChar

StartChar: W
Encoding: 87 87 42
Width: 921
VWidth: 0
Flags: HW
LayerCount: 2
Fore
SplineSet
561 730 m 5
 728 112 l 5
 668 -27 l 5
 501 561 l 5
 561 730 l 5
1014 730 m 5
 668 -27 l 5
 636 136 l 5
 896 730 l 5
 1014 730 l 5
230 730 m 5
 325 132 l 5
 246 -27 l 5
 112 730 l 5
 230 730 l 5
575 558 m 5
 246 -27 l 5
 226 116 l 5
 561 730 l 5
 575 558 l 5
EndSplineSet
EndChar

StartChar: x
Encoding: 120 120 43
Width: 506
VWidth: 0
Flags: W
HStem: 0 21G<0 147 365.514 506> 506 20G<74 215.435 433.804 580>
LayerCount: 2
Fore
SplineSet
279 185 m 5
 131 0 l 1
 0 0 l 1
 228 263 l 1
 74 526 l 1
 205 526 l 1
 301 342 l 1
 450 526 l 1
 580 526 l 1
 352 263 l 1
 506 0 l 1
 376 0 l 1
 279 185 l 5
EndSplineSet
EndChar

StartChar: z
Encoding: 122 122 44
Width: 502
VWidth: 0
Flags: HW
LayerCount: 2
Fore
SplineSet
97 419 m 1
 112 526 l 1
 531 526 l 1
 457 419 l 1
 97 419 l 1
38 0 m 1
 114 107 l 1
 473 107 l 1
 458 0 l 1
 38 0 l 1
10 0 m 1
 436 526 l 5
 561 526 l 1
 134 0 l 1
 10 0 l 1
EndSplineSet
EndChar

StartChar: P
Encoding: 80 80 45
Width: 535
VWidth: 0
Flags: HW
LayerCount: 2
Fore
SplineSet
380 730 m 1xe2
 518 730 595 636 576 498 c 4
 557 360 451 256 313 256 c 1
 319 363 l 1
 399 363 452 413 464 498 c 4
 476 583 435 623 355 623 c 1
 380 730 l 1xe2
178 256 m 1xea
 194 363 l 1
 319 363 l 1
 313 256 l 1
 178 256 l 1xea
66 0 m 1xf2
 169 730 l 1xf2
 282 730 l 1xe6
 180 0 l 1
 66 0 l 1xf2
246 623 m 1xe6
 261 730 l 1
 380 730 l 1
 355 623 l 1
 246 623 l 1xe6
EndSplineSet
EndChar

StartChar: exclam
Encoding: 33 33 46
Width: 277
VWidth: 0
Flags: HW
LayerCount: 2
Fore
SplineSet
80 56 m 4xc0
 85 93 119 123 156 123 c 4
 193 123 219 93 214 56 c 4
 209 19 175 -11 138 -11 c 4
 101 -11 75 19 80 56 c 4xc0
139 281 m 5x90
 197 811 l 5
 309 811 l 5xa0
 219 281 l 5
 139 281 l 5x90
EndSplineSet
EndChar

StartChar: B
Encoding: 66 66 47
Width: 595
VWidth: 0
Flags: HW
LayerCount: 2
Fore
SplineSet
412 730 m 1xdc
 531 730 596 647 581 539 c 0
 567 442 454 336 357 336 c 1xbc
 360 428 l 1
 416 428 460 472 468 528 c 0
 476 584 443 623 387 623 c 1
 412 730 l 1xdc
257 623 m 1
 272 730 l 1
 412 730 l 1
 397 623 l 1
 257 623 l 1
215 321 m 1xd8
 230 428 l 1
 402 428 l 5
 387 321 l 5
 215 321 l 1xd8
66 0 m 1
 169 730 l 1
 282 730 l 1
 180 0 l 1
 66 0 l 1
170 0 m 1
 183 97 l 1
 355 97 l 1
 342 0 l 1
 170 0 l 1
398 401 m 1xba
 501 401 593 324 577 211 c 0
 561 97 466 0 342 0 c 1
 345 96 l 1
 412 96 457 155 465 211 c 0
 473 267 444 321 377 321 c 1xda
 398 401 l 1xba
EndSplineSet
EndChar

StartChar: S
Encoding: 83 83 48
Width: 563
VWidth: 0
Flags: HW
LayerCount: 2
Fore
SplineSet
158 540 m 1xbc
 173 650 286 741 413 741 c 0
 543 741 602 664 602 664 c 1
 544 572 l 1
 544 572 497 631 403 631 c 0
 329 631 284 594 277 544 c 1xdc
 158 540 l 1xbc
553 197 m 1
 538 87 427 -11 290 -11 c 0
 133 -11 52 98 52 98 c 1
 120 186 l 1
 120 186 191 104 307 104 c 0
 388 104 429 150 436 200 c 5
 553 197 l 1
336 315 m 4
 231 344 141 417 158 540 c 1xbc
 277 544 l 1
 270 493 283 447 374 426 c 0
 487 400 571 325 553 197 c 1
 436 200 l 5
 443 250 424 291 336 315 c 4
EndSplineSet
EndChar

StartChar: Q
Encoding: 81 81 49
Width: 869
VWidth: 0
Flags: HW
LayerCount: 2
Fore
SplineSet
198 366 m 0xb8
 177 216 273 102 420 102 c 0
 567 102 694 216 715 366 c 0
 736 516 641 629 494 629 c 0
 347 629 219 516 198 366 c 0xb8
698 0 m 5x78
 449 303 l 5
 593 303 l 1
 840 0 l 1
 698 0 l 5x78
80 366 m 0
 109 574 302 742 510 742 c 0
 718 742 862 574 833 366 c 0
 804 158 612 -11 404 -11 c 0xb8
 196 -11 51 158 80 366 c 0
EndSplineSet
EndChar

StartChar: Z
Encoding: 90 90 50
Width: 645
VWidth: 0
Flags: HW
LayerCount: 2
Fore
SplineSet
124 623 m 1
 139 730 l 1
 702 730 l 1
 633 623 l 1
 124 623 l 1
36 0 m 1
 106 107 l 1
 615 107 l 1
 600 0 l 1
 36 0 l 1
10 0 m 1
 601 730 l 5
 729 730 l 1
 138 0 l 1
 10 0 l 1
EndSplineSet
EndChar

StartChar: U
Encoding: 85 85 51
Width: 723
VWidth: 0
Flags: W
HStem: -11 108<292.032 464.224> 710 20G<166.186 282 643.199 759>
DStem2: 104 268 218 273 0.139321 0.990247<-58.7175 466.55> 582 273 694 268 0.139321 0.990247<-85.252 461.46>
LayerCount: 2
Fore
SplineSet
582 273 m 5
 646 730 l 1
 759 730 l 1
 694 268 l 1
 582 273 l 5
104 268 m 1
 169 730 l 1
 282 730 l 1
 218 273 l 5
 104 268 l 1
694 268 m 1
 670 98 508 -11 360 -11 c 0
 212 -11 80 98 104 268 c 1
 218 273 l 5
 205 181 267 97 375 97 c 4
 483 97 569 181 582 273 c 5
 694 268 l 1
EndSplineSet
EndChar

StartChar: Y
Encoding: 89 89 52
Width: 619
VWidth: 0
Flags: W
HStem: 0 21G<254 366.85> 710 20G<112 243.354 574.013 712>
VStem: 254 110<0 49.1186>
LayerCount: 2
Fore
SplineSet
254 0 m 1
 312 414 l 5
 423 414 l 5
 364 0 l 1
 254 0 l 1
339 218 m 1
 112 730 l 1
 235 730 l 1
 367 414 l 5
 588 730 l 1
 712 730 l 1
 339 218 l 1
EndSplineSet
EndChar

StartChar: X
Encoding: 88 88 53
Width: 659
VWidth: 0
Flags: HW
LayerCount: 2
Fore
SplineSet
650 0 m 1
 512 0 l 1
 132 730 l 1
 269 730 l 1
 650 0 l 1
732 730 m 1
 146 0 l 1
 10 0 l 1
 595 730 l 1
 732 730 l 1
EndSplineSet
EndChar

StartChar: K
Encoding: 75 75 54
Width: 578
VWidth: 0
Flags: HW
LayerCount: 2
Fore
SplineSet
222 351 m 1
 552 730 l 1
 681 730 l 1
 351 351 l 1
 222 351 l 1
444 0 m 1
 204 351 l 5
 351 351 l 1
 578 0 l 1
 444 0 l 1
76 0 m 1
 179 730 l 1
 292 730 l 1
 189 0 l 1
 76 0 l 1
EndSplineSet
EndChar

StartChar: comma
Encoding: 44 44 55
Width: 280
VWidth: 0
Flags: W
HStem: -110 212
VStem: 5 218
LayerCount: 2
Fore
SplineSet
110 102 m 1
 223 102 l 1
 85 -110 l 1
 5 -110 l 1
 110 102 l 1
EndSplineSet
EndChar

StartChar: quotedbl
Encoding: 34 34 56
Width: 261
VWidth: 0
Flags: HW
LayerCount: 2
Fore
SplineSet
259 811 m 1
 361 811 l 1
 314 599 l 1
 245 599 l 1
 259 811 l 1
129 811 m 1
 231 811 l 1
 185 599 l 1
 115 599 l 1
 129 811 l 1
EndSplineSet
EndChar

StartChar: quotesingle
Encoding: 39 39 57
Width: 163
VWidth: 0
Flags: HW
LayerCount: 2
Fore
SplineSet
136 811 m 1
 248 811 l 1
 199 599 l 1
 119 599 l 1
 136 811 l 1
EndSplineSet
EndChar

StartChar: colon
Encoding: 58 58 58
Width: 277
VWidth: 0
Flags: HW
LayerCount: 2
Fore
SplineSet
131 420 m 4
 136 457 171 487 208 487 c 4
 245 487 270 457 265 420 c 4
 260 383 226 353 189 353 c 4
 152 353 126 383 131 420 c 4
89 117 m 0
 94 154 128 184 165 184 c 0
 202 184 228 154 223 117 c 0
 218 80 183 50 146 50 c 0
 109 50 84 80 89 117 c 0
EndSplineSet
EndChar

StartChar: semicolon
Encoding: 59 59 59
Width: 280
VWidth: 0
Flags: HW
LayerCount: 2
Fore
SplineSet
134 420 m 0
 139 457 173 487 210 487 c 0
 247 487 273 457 268 420 c 0
 263 383 229 353 192 353 c 0
 155 353 129 383 134 420 c 0
119 162 m 1
 232 162 l 1
 94 -50 l 1
 14 -50 l 1
 119 162 l 1
EndSplineSet
EndChar

StartChar: dollar
Encoding: 36 36 60
Width: 568
VWidth: 0
Flags: HW
LayerCount: 2
Fore
SplineSet
162 546 m 1xbe
 177 656 289 741 416 741 c 0
 546 741 605 664 605 664 c 1
 549 582 l 1
 549 582 501 641 407 641 c 0
 333 641 278 599 271 549 c 1xde
 162 546 l 1xbe
554 189 m 1
 539 79 430 -11 293 -11 c 0
 136 -11 55 98 55 98 c 1
 122 176 l 1
 122 176 192 94 308 94 c 0
 389 94 441 145 448 195 c 1
 554 189 l 1
340 320 m 0
 235 349 145 423 162 546 c 1xbe
 271 549 l 1
 263 495 276 448 376 421 c 0
 488 391 572 317 554 189 c 1
 448 195 l 1
 455 245 437 293 340 320 c 0
253 -108 m 1
 382 811 l 1
 453 811 l 5
 324 -108 l 5
 253 -108 l 1
EndSplineSet
EndChar

StartChar: zero
Encoding: 48 48 61
Width: 596
VWidth: 0
Flags: HW
LayerCount: 2
Fore
SplineSet
190 366 m 0
 176 265 180 92 311 92 c 0
 442 92 497 265 511 366 c 4
 525 467 519 639 388 639 c 4
 257 639 204 467 190 366 c 0
82 366 m 0
 108 552 217 742 403 742 c 0
 589 742 645 552 619 366 c 0
 593 180 483 -11 297 -11 c 0
 111 -11 56 180 82 366 c 0
EndSplineSet
EndChar

StartChar: one
Encoding: 49 49 62
Width: 581
VWidth: 0
Flags: HW
LayerCount: 2
Fore
SplineSet
240 541 m 5
 254 638 l 1
 507 746 l 1
 490 622 l 5
 240 541 l 5
299 0 m 1
 389 638 l 1
 507 746 l 1
 402 0 l 1
 299 0 l 1
EndSplineSet
EndChar

StartChar: two
Encoding: 50 50 63
Width: 595
VWidth: 1081
Flags: HW
LayerCount: 2
Fore
SplineSet
401 742 m 1
 542 742 633 668 612 516 c 0
 601 436 527 352 484 306 c 2
 284 103 l 5
 576 103 l 1
 561 0 l 1
 55 0 l 1
 422 379 l 2
 463 421 496 461 504 516 c 0
 517 607 466 634 386 634 c 1
 401 742 l 1
386 634 m 1
 277 634 150 509 150 509 c 1
 168 637 l 1
 168 637 273 742 401 742 c 1
 386 634 l 1
EndSplineSet
EndChar

StartChar: percent
Encoding: 37 37 64
Width: 1126
VWidth: 0
Flags: HW
LayerCount: 2
Fore
SplineSet
730 188 m 0xa3c0
 721 123 765 71 827 71 c 0
 889 71 946 123 955 188 c 0
 964 253 921 305 859 305 c 0
 797 305 739 253 730 188 c 0xa3c0
267 542 m 0
 258 477 300 425 362 425 c 0
 424 425 483 477 492 542 c 0
 501 607 457 659 395 659 c 0x1bc0
 333 659 276 607 267 542 c 0
644 188 m 0
 659 298 761 387 871 387 c 0
 981 387 1057 298 1042 188 c 0
 1027 78 925 -11 815 -11 c 0xa3c0
 705 -11 629 78 644 188 c 0
244 0 m 1x47c0
 865 730 l 1
 978 730 l 1
 357 0 l 1
 244 0 l 1x47c0
180 542 m 0
 195 652 297 741 407 741 c 0
 517 741 593 652 578 542 c 0
 563 432 461 343 351 343 c 0x1bc0
 241 343 165 432 180 542 c 0
EndSplineSet
EndChar

StartChar: three
Encoding: 51 51 65
Width: 591
VWidth: 0
Flags: HW
LayerCount: 2
Fore
SplineSet
181 633 m 5
 194 730 l 5
 614 730 l 1
 461 633 l 1
 181 633 l 5
302 465 m 1
 448 465 540 357 523 233 c 0
 504 98 392 -11 235 -11 c 1
 248 85 l 1
 331 85 407 134 421 233 c 0
 434 327 362 380 257 380 c 1
 302 465 l 1
214 380 m 1
 506 730 l 1
 614 730 l 1
 322 380 l 1
 214 380 l 1
235 -12 m 1
 186 -12 128 -1 88 21 c 1
 103 133 l 1
 135 100 197 85 248 85 c 1
 235 -12 l 1
EndSplineSet
EndChar

StartChar: four
Encoding: 52 52 66
Width: 595
VWidth: 0
Flags: HW
LayerCount: 2
Fore
SplineSet
64 162 m 1
 164 260 l 1
 591 260 l 1
 578 162 l 1
 64 162 l 1
382 0 m 1
 464 587 l 1
 574 631 l 1
 485 0 l 1
 382 0 l 1
572 620 m 5
 173 173 l 1
 64 162 l 1
 591 757 l 1
 572 620 l 5
EndSplineSet
EndChar

StartChar: five
Encoding: 53 53 67
Width: 592
VWidth: 0
Flags: HW
LayerCount: 2
Fore
SplineSet
245 730 m 1
 346 730 l 1
 244 389 l 1
 172 350 l 5
 143 389 l 1
 245 730 l 1
232 633 m 1
 245 730 l 1
 585 730 l 1
 572 633 l 1
 232 633 l 1
177 331 m 5
 144 388 l 1
 144 389 l 1
 144 389 242 443 334 443 c 0
 493 443 570 353 551 216 c 0
 532 79 408 -11 249 -11 c 0
 189 -11 116 6 76 28 c 1
 91 140 l 1
 123 107 201 87 263 87 c 0
 358 87 436 134 448 216 c 0
 460 298 396 357 312 357 c 0
 263 357 213 347 177 331 c 5
EndSplineSet
EndChar

StartChar: six
Encoding: 54 54 68
Width: 592
VWidth: 0
Flags: HW
LayerCount: 2
Fore
SplineSet
198 216 m 4
 188 144 237 87 309 87 c 4
 381 87 447 144 457 216 c 4
 467 288 417 346 345 346 c 4
 273 346 207 278 198 216 c 4
141 322 m 6
 394 730 l 5
 506 730 l 5
 309 412 l 5
 332 422 360 433 390 433 c 4
 483 433 572 341 554 216 c 4
 536 91 420 -11 295 -11 c 4
 170 -11 82 91 100 216 c 4
 105 254 119 287 141 322 c 6
EndSplineSet
EndChar

StartChar: nine
Encoding: 57 57 69
Width: 592
VWidth: 0
Flags: HW
LayerCount: 2
Fore
SplineSet
499 514 m 0
 509 586 459 643 387 643 c 0
 315 643 250 586 240 514 c 0
 230 442 278 384 350 384 c 0
 422 384 490 452 499 514 c 0
556 408 m 2
 302 0 l 1
 189 0 l 1
 387 318 l 1
 364 308 336 297 306 297 c 0
 213 297 124 389 142 514 c 0
 160 639 275 741 400 741 c 0
 525 741 614 639 596 514 c 0
 591 476 578 443 556 408 c 2
EndSplineSet
EndChar

StartChar: eight
Encoding: 56 56 70
Width: 592
VWidth: 0
Flags: HW
LayerCount: 2
Fore
SplineSet
182 548 m 0xb6
 197 654 295 745 401 745 c 0
 507 745 580 654 565 548 c 0
 551 447 432 368 348 368 c 0
 264 368 168 447 182 548 c 0xb6
274 548 m 0
 265 487 298 443 359 443 c 0xd6
 420 443 464 487 473 548 c 0
 482 609 449 653 388 653 c 0
 327 653 283 609 274 548 c 0
101 227 m 4xb9
 118 347 243 438 358 438 c 0
 473 438 573 342 556 222 c 4
 538 97 420 -11 295 -11 c 0
 170 -11 83 102 101 227 c 4xb9
199 222 m 4
 189 150 237 92 309 92 c 0
 381 92 448 150 458 222 c 4
 468 294 418 351 346 351 c 0xd9
 274 351 209 294 199 222 c 4
EndSplineSet
EndChar

StartChar: seven
Encoding: 55 55 71
Width: 593
VWidth: 0
Flags: HW
LayerCount: 2
Fore
SplineSet
155 633 m 1
 169 730 l 1
 629 730 l 1
 572 633 l 1
 155 633 l 1
126 0 m 5
 521 730 l 5
 629 730 l 1
 234 0 l 1
 126 0 l 5
EndSplineSet
EndChar

StartChar: numbersign
Encoding: 35 35 72
Width: 701
VWidth: 0
Flags: HW
LayerCount: 2
Fore
SplineSet
34 195 m 1
 70 292 l 1
 200 292 l 1
 256 443 l 1
 126 443 l 1
 163 541 l 1
 292 541 l 1
 367 741 l 1
 470 741 l 1
 396 541 l 1
 547 541 l 1
 621 741 l 1
 724 741 l 1
 650 541 l 1
 780 541 l 1
 743 443 l 1
 614 443 l 1
 557 292 l 1
 687 292 l 1
 651 195 l 1
 521 195 l 1
 445 -11 l 1
 341 -11 l 1
 418 195 l 1
 267 195 l 1
 190 -11 l 1
 87 -11 l 1
 164 195 l 1
 34 195 l 1
454 292 m 1
 510 443 l 1
 359 443 l 1
 303 292 l 1
 454 292 l 1
EndSplineSet
EndChar

StartChar: parenleft
Encoding: 40 40 73
Width: 226
VWidth: 0
Flags: HW
LayerCount: 2
Fore
SplineSet
108 -194 m 5
 6 81 71 544 249 809 c 1
 329 804 l 1
 181 486 133 136 190 -188 c 5
 108 -194 l 5
EndSplineSet
EndChar

StartChar: parenright
Encoding: 41 41 74
Width: 225
VWidth: 0
Flags: HW
LayerCount: 2
Fore
SplineSet
205 809 m 1
 307 534 242 71 64 -194 c 5
 -16 -188 l 5
 132 130 180 480 123 804 c 1
 205 809 l 1
EndSplineSet
EndChar

StartChar: asterisk
Encoding: 42 42 75
Width: 334
VWidth: 0
Flags: HW
LayerCount: 2
Fore
SplineSet
242 873 m 1
 337 873 l 1
 311 756 l 1
 426 804 l 1
 443 713 l 1
 325 686 l 1
 391 598 l 1
 307 542 l 1
 260 643 l 1
 185 540 l 1
 116 596 l 1
 206 685 l 1
 93 710 l 1
 136 800 l 1
 237 755 l 1
 242 873 l 1
EndSplineSet
EndChar

StartChar: ampersand
Encoding: 38 38 76
Width: 863
VWidth: 0
Flags: HW
LayerCount: 2
Fore
SplineSet
667 262 m 2
 668 263 667 262 668 263 c 0
 669 264 l 1
 774 381 l 1
 852 326 l 1
 745 208 l 1
 740 203 735 197 730 192 c 1
 798 115 l 1
 778 -25 l 1
 653 117 l 1
 560 38 457 -22 334 -22 c 0
 201 -22 116 83 132 196 c 0
 144 281 212 353 302 408 c 1
 312 414 352 435 373 446 c 1
 333 496 299 551 311 639 c 0
 322 718 398 822 535 822 c 0
 654 822 713 740 699 642 c 0
 685 541 589 480 514 430 c 1
 667 262 l 2
429 378 m 1
 412 367 380 346 356 333 c 1
 289 295 247 245 240 196 c 0
 231 131 291 83 349 83 c 0
 442 83 516 120 592 187 c 1
 429 378 l 1
460 499 m 1
 542 553 592 598 598 642 c 0
 606 701 576 725 521 725 c 0
 447 725 417 670 413 639 c 0
 405 583 419 550 460 499 c 1
EndSplineSet
EndChar

StartChar: plus
Encoding: 43 43 77
Width: 534
VWidth: 0
Flags: HW
LayerCount: 2
Fore
SplineSet
273 395 m 1
 299 583 l 1
 400 583 l 5
 374 395 l 5
 540 395 l 1
 526 298 l 1
 360 298 l 5
 333 108 l 5
 232 108 l 1
 259 298 l 1
 93 298 l 1
 107 395 l 1
 273 395 l 1
EndSplineSet
EndChar

StartChar: equal
Encoding: 61 61 78
Width: 534
VWidth: 0
Flags: HW
LayerCount: 2
Fore
SplineSet
526 297 m 1
 513 201 l 1
 80 201 l 1
 93 297 l 1
 526 297 l 1
553 492 m 5
 540 396 l 5
 107 396 l 5
 120 492 l 5
 553 492 l 5
EndSplineSet
EndChar

StartChar: hyphen
Encoding: 45 45 79
Width: 421
VWidth: 0
Flags: HW
LayerCount: 2
Fore
SplineSet
374 395 m 5
 360 298 l 1
 144 298 l 1
 158 395 l 5
 374 395 l 5
EndSplineSet
EndChar

StartChar: at
Encoding: 64 64 80
Width: 922
VWidth: 0
Flags: W
HStem: -216 75<328.484 411> -15 76<721.502 797.085> -11 98<418.074 549.347> 125 55<650.451 707> 389 98<478.743 613.936> 616 76<479.005 712.779>
VStem: 699 81<412.507 443> 869 70<166.672 463.762>
LayerCount: 2
Fore
SplineSet
757 61 m 1xdf
 740 -15 l 1
 657 -15 626 59 654 180 c 1
 720 180 l 1
 705 114 709 61 757 61 c 1xdf
757 61 m 1
 805 61 846 140 869 238 c 1
 939 238 l 1
 901 74 823 -15 740 -15 c 1
 757 61 l 1
707 125 m 1
 626 125 l 1
 699 443 l 1
 780 443 l 1
 707 125 l 1
652 238 m 0
 671 320 629 389 551 389 c 0
 473 389 400 320 381 238 c 0
 362 156 403 87 481 87 c 0xbf
 559 87 633 156 652 238 c 0
710 238 m 0
 678 101 586 -11 459 -11 c 0
 332 -11 254 101 286 238 c 0
 318 375 447 487 574 487 c 0
 701 487 742 375 710 238 c 0
94 268 m 4
 152 519 388 692 621 692 c 0
 854 692 992 467 939 238 c 1
 869 238 l 1
 917 447 798 616 604 616 c 0
 410 616 213 477 165 268 c 4
 117 59 235 -141 429 -141 c 1
 411 -216 l 1
 178 -216 36 17 94 268 c 4
EndSplineSet
EndChar

StartChar: slash
Encoding: 47 47 81
Width: 459
VWidth: 0
Flags: HW
LayerCount: 2
Fore
SplineSet
-24 -107 m 5
 473 837 l 1
 587 837 l 1
 89 -107 l 5
 -24 -107 l 5
EndSplineSet
EndChar

StartChar: backslash
Encoding: 92 92 82
Width: 459
VWidth: 0
Flags: HW
LayerCount: 2
Fore
SplineSet
109 837 m 1
 222 837 l 1
 466 -27 l 5
 352 -27 l 5
 109 837 l 1
EndSplineSet
EndChar

StartChar: question
Encoding: 63 63 83
Width: 502
VWidth: 0
Flags: HW
LayerCount: 2
Fore
SplineSet
164 56 m 4xf4
 169 93 203 123 240 123 c 4
 277 123 303 93 298 56 c 4
 293 19 259 -11 222 -11 c 4
 185 -11 159 19 164 56 c 4xf4
439 573 m 4
 451 655 398 722 314 722 c 4
 263 722 209 710 167 677 c 5
 183 789 l 5
 229 811 279 822 328 822 c 4
 465 822 561 710 542 573 c 4
 523 436 395 324 258 324 c 4
 242 324 228 329 228 329 c 5
 214 427 l 5
 214 427 236 422 272 422 c 4
 346 422 427 491 439 573 c 4
200 200 m 5xec
 214 427 l 5
 265 406 l 5
 334 425 l 5
 291 200 l 5
 200 200 l 5xec
EndSplineSet
EndChar

StartChar: greater
Encoding: 62 62 84
Width: 536
VWidth: 0
Flags: HW
LayerCount: 2
Fore
SplineSet
111 427 m 1
 125 523 l 1
 560 346 l 1
 443 305 l 1
 111 427 l 1
75 168 m 1
 88 264 l 1
 455 387 l 5
 560 346 l 1
 75 168 l 1
EndSplineSet
EndChar

StartChar: less
Encoding: 60 60 85
Width: 536
VWidth: 0
Flags: HW
LayerCount: 2
Fore
SplineSet
523 265 m 1
 509 169 l 1
 74 346 l 1
 190 387 l 1
 523 265 l 1
559 525 m 1
 546 428 l 1
 179 305 l 1
 74 346 l 1
 559 525 l 1
EndSplineSet
EndChar

StartChar: bracketleft
Encoding: 91 91 86
Width: 242
VWidth: 0
Flags: HW
LayerCount: 2
Fore
SplineSet
171 671 m 1
 183 757 l 1
 421 757 l 1
 413 698 l 1
 171 671 l 1
58 -135 m 1
 70 -49 l 5
 304 -76 l 5
 296 -135 l 1
 58 -135 l 1
58 -135 m 1
 183 757 l 1
 277 735 l 1
 166 -59 l 5
 58 -135 l 1
EndSplineSet
EndChar

StartChar: bracketright
Encoding: 93 93 87
Width: 242
VWidth: 0
Flags: HW
LayerCount: 2
Fore
SplineSet
159 -49 m 5
 147 -135 l 1
 -91 -135 l 1
 -83 -76 l 5
 159 -49 l 5
272 757 m 1
 260 671 l 1
 26 698 l 1
 34 757 l 1
 272 757 l 1
272 757 m 1
 147 -135 l 1
 56 -92 l 5
 165 681 l 1
 272 757 l 1
EndSplineSet
EndChar

StartChar: asciicircum
Encoding: 94 94 88
Width: 346
VWidth: 0
Flags: W
HStem: 626 212
VStem: 118 286
LayerCount: 2
Fore
SplineSet
243 762 m 5
 291 838 l 1
 404 626 l 1
 313 626 l 5
 243 762 l 5
291 838 m 1
 317 762 l 1
 209 626 l 1
 118 626 l 1
 291 838 l 1
EndSplineSet
EndChar

StartChar: underscore
Encoding: 95 95 89
Width: 540
VWidth: 0
Flags: HW
LayerCount: 2
Fore
SplineSet
-25 -178 m 1
 -15 -108 l 1
 526 -108 l 5
 516 -178 l 5
 -25 -178 l 1
EndSplineSet
EndChar

StartChar: bar
Encoding: 124 124 90
Width: 255
VWidth: 0
Flags: HW
LayerCount: 2
Fore
SplineSet
54 -162 m 1
 191 811 l 1
 294 811 l 1
 157 -162 l 1
 54 -162 l 1
EndSplineSet
EndChar

StartChar: braceleft
Encoding: 123 123 91
Width: 245
VWidth: 0
Flags: HW
LayerCount: 2
Fore
SplineSet
148 476 m 5x98
 161 562 l 5
 258 562 l 5
 245 476 l 5
 148 476 l 5x98
245 476 m 5
 226 339 158 292 31 292 c 5xb8
 40 362 l 5xd8
 127 362 135 381 148 476 c 5
 245 476 l 5
39 351 m 5
 166 351 218 283 199 146 c 5
 102 146 l 5
 116 243 113 281 29 281 c 5xd8
 39 351 l 5
258 -135 m 5
 121 -135 71 -78 90 59 c 5
 187 59 l 5
 175 -28 187 -43 271 -43 c 5
 258 -135 l 5
90 59 m 5
 102 146 l 5
 199 146 l 5
 187 59 l 5
 90 59 l 5
161 562 m 5
 180 699 246 757 383 757 c 5
 370 665 l 5
 283 665 270 646 258 562 c 5
 161 562 l 5
EndSplineSet
EndChar

StartChar: braceright
Encoding: 125 125 92
Width: 245
VWidth: 0
Flags: HW
LayerCount: 2
Fore
SplineSet
185 154 m 1x98
 173 67 l 1
 76 67 l 1
 88 154 l 1
 185 154 l 1x98
88 154 m 1
 107 291 176 337 303 337 c 1xb8
 293 267 l 1xd8
 206 267 198 249 185 154 c 1
 88 154 l 1
295 278 m 1
 168 278 115 346 134 483 c 1
 231 483 l 1
 217 386 221 348 305 348 c 1xd8
 295 278 l 1
77 765 m 1
 214 765 263 707 244 570 c 1
 147 570 l 1
 159 657 148 673 64 673 c 1
 77 765 l 1
244 570 m 1
 231 483 l 1
 134 483 l 1
 147 570 l 1
 244 570 l 1
173 67 m 1
 154 -70 89 -128 -48 -128 c 1
 -35 -36 l 1
 52 -36 64 -17 76 67 c 1
 173 67 l 1
EndSplineSet
EndChar

StartChar: asciitilde
Encoding: 126 126 93
Width: 531
VWidth: 0
Flags: W
HStem: 244 205
LayerCount: 2
Fore
SplineSet
519 449 m 1
 504 342 l 5
 279 126 338 471 111 244 c 1
 126 351 l 1
 362 567 292 222 519 449 c 1
EndSplineSet
EndChar

StartChar: cedilla
Encoding: 184 184 94
Width: 280
VWidth: 0
Flags: W
HStem: -216 189
VStem: -9 214
LayerCount: 2
Fore
SplineSet
92 -27 m 1
 205 -27 l 1
 71 -216 l 1
 -9 -216 l 1
 92 -27 l 1
EndSplineSet
EndChar

StartChar: grave
Encoding: 96 96 95
Width: 210
VWidth: 0
Flags: W
HStem: 761 212
VStem: 137 181
LayerCount: 2
Fore
SplineSet
137 973 m 1
 283 973 l 1
 318 761 l 1
 296 761 l 1
 137 973 l 1
EndSplineSet
EndChar

StartChar: exclamdown
Encoding: 161 161 96
Width: 256
VWidth: 0
Flags: HW
LayerCount: 2
Fore
SplineSet
290 674 m 0xc0
 285 637 251 607 214 607 c 0
 177 607 151 637 156 674 c 0
 161 711 196 741 233 741 c 0
 270 741 295 711 290 674 c 0xc0
232 449 m 1x90
 173 -81 l 1
 61 -81 l 1xa0
 152 449 l 1
 232 449 l 1x90
EndSplineSet
EndChar

StartChar: cent
Encoding: 162 162 97
Width: 470
VWidth: 0
Flags: HW
LayerCount: 2
Fore
SplineSet
177 238 m 0
 165 156 218 87 302 87 c 0
 353 87 408 101 450 134 c 1
 434 22 l 1
 388 0 337 -11 288 -11 c 0
 151 -11 55 101 74 238 c 0
 93 375 221 487 358 487 c 0
 407 487 455 476 495 454 c 1
 479 342 l 1
 447 375 396 389 345 389 c 0
 261 389 189 320 177 238 c 0
226 -108 m 1
 323 584 l 1
 394 584 l 1
 297 -108 l 1
 226 -108 l 1
EndSplineSet
EndChar

StartChar: sterling
Encoding: 163 163 98
Width: 474
VWidth: 0
Flags: HW
LayerCount: 2
Fore
SplineSet
10 0 m 1
 24 97 l 5
 489 97 l 5
 475 0 l 1
 10 0 l 1
64 379 m 1
 77 476 l 1
 374 476 l 1
 361 379 l 1
 64 379 l 1
80 0 m 1
 166 611 l 1
 269 611 l 1
 183 0 l 1
 80 0 l 1
398 725 m 1
 412 822 l 1
 499 822 545 762 545 762 c 1
 531 666 l 1
 531 666 476 725 398 725 c 1
398 725 m 1
 319 725 280 690 269 611 c 1
 166 611 l 1
 186 756 291 822 412 822 c 1
 398 725 l 1
EndSplineSet
EndChar

StartChar: currency
Encoding: 164 164 99
Width: 583
VWidth: 0
Flags: HW
LayerCount: 2
Fore
SplineSet
180 238 m 0
 168 156 220 87 304 87 c 0
 388 87 460 156 472 238 c 0
 484 320 431 389 347 389 c 0
 263 389 192 320 180 238 c 0
463 65 m 1
 575 -103 l 1
 456 -103 l 5
 344 65 l 5
 463 65 l 1
258 65 m 1
 100 -103 l 1
 -19 -103 l 1
 139 65 l 1
 258 65 l 1
188 411 m 1
 77 579 l 1
 196 579 l 1
 307 411 l 1
 188 411 l 1
393 411 m 1
 552 579 l 1
 671 579 l 1
 512 411 l 1
 393 411 l 1
77 238 m 0
 96 375 224 487 361 487 c 0
 498 487 594 375 575 238 c 0
 556 101 428 -11 291 -11 c 0
 154 -11 58 101 77 238 c 0
EndSplineSet
EndChar

StartChar: yen
Encoding: 165 165 100
Width: 619
VWidth: 0
Flags: HW
LayerCount: 2
Fore
SplineSet
259 0 m 1
 316 403 l 1
 417 403 l 1
 360 0 l 1
 259 0 l 1
341 228 m 1
 113 730 l 1
 226 730 l 1
 366 403 l 1
 599 730 l 1
 713 730 l 1
 341 228 l 1
139 225 m 1
 146 274 l 1
 551 274 l 1
 544 225 l 1
 139 225 l 1
154 333 m 1
 161 382 l 1
 566 382 l 1
 559 333 l 1
 154 333 l 1
EndSplineSet
EndChar

StartChar: brokenbar
Encoding: 166 166 101
Width: 255
VWidth: 0
Flags: HW
LayerCount: 2
Fore
SplineSet
241 433 m 1
 138 433 l 1
 191 811 l 1
 294 811 l 1
 241 433 l 1
210 216 m 1
 157 -162 l 1
 54 -162 l 1
 107 216 l 1
 210 216 l 1
EndSplineSet
EndChar

StartChar: section
Encoding: 167 167 102
Width: 439
VWidth: 0
Flags: HW
LayerCount: 2
Fore
SplineSet
281 301 m 0
 340 301 355 337 359 366 c 0
 365 410 349 436 293 436 c 0
 242 436 213 399 209 371 c 0
 205 339 227 301 281 301 c 0
391 259 m 1
 417 233 434 195 430 146 c 1
 429 139 428 132 427 125 c 1
 409 30 327 -22 222 -22 c 0
 86 -18 45 67 39 77 c 1
 111 153 l 1
 118 142 l 1
 118 142 159 75 231 75 c 0
 298 75 322 106 326 132 c 0
 332 174 304 195 247 205 c 0
 183 216 96 259 103 356 c 1
 104 363 105 371 106 378 c 1
 115 423 144 457 183 479 c 1
 154 505 132 543 135 590 c 1
 136 597 138 605 139 612 c 1
 157 697 237 753 342 753 c 0
 434 753 486 696 492 690 c 1
 442 595 l 1
 432 608 l 1
 432 608 392 659 324 659 c 0
 271 659 246 631 242 605 c 0
 238 574 260 542 316 534 c 0
 390 523 471 480 463 380 c 1
 462 373 461 365 460 358 c 1
 451 312 426 280 391 259 c 1
EndSplineSet
EndChar

StartChar: dieresis
Encoding: 168 168 103
Width: 477
VWidth: 0
Flags: W
HStem: 861 134<216.556 302.171 437.556 523.171>
VStem: 192 134<885.383 970.617> 413 134<885.383 970.617>
LayerCount: 2
Fore
SplineSet
413 928 m 0
 418 965 453 995 490 995 c 0
 527 995 552 965 547 928 c 0
 542 891 508 861 471 861 c 0
 434 861 408 891 413 928 c 0
192 928 m 0
 197 965 232 995 269 995 c 0
 306 995 331 965 326 928 c 0
 321 891 287 861 250 861 c 0
 213 861 187 891 192 928 c 0
EndSplineSet
EndChar

StartChar: copyright
Encoding: 169 169 104
Width: 835
VWidth: 0
Flags: HW
LayerCount: 2
Fore
SplineSet
369 366 m 0
 360 300 401 250 466 250 c 0
 502 250 538 261 568 281 c 0
 587 295 l 1
 574 200 l 1
 568 197 l 0
 532 178 493 167 454 167 c 0
 344 167 268 256 283 366 c 0
 298 476 400 565 510 565 c 0
 549 565 585 553 615 534 c 0
 620 531 l 1
 607 436 l 1
 592 450 l 0
 568 470 534 481 498 481 c 0
 433 481 378 432 369 366 c 0
191 366 m 0
 169 206 273 81 430 81 c 0
 587 81 727 206 749 366 c 0
 771 526 667 650 510 650 c 0
 353 650 213 526 191 366 c 0
82 366 m 0
 112 580 310 753 524 753 c 0
 738 753 887 580 857 366 c 0
 827 152 629 -22 415 -22 c 0
 201 -22 52 152 82 366 c 0
EndSplineSet
EndChar

StartChar: registered
Encoding: 174 174 105
Width: 835
VWidth: 0
Flags: HW
LayerCount: 2
Fore
SplineSet
82 366 m 0
 112 580 310 753 524 753 c 0
 738 753 887 580 857 366 c 0
 827 152 629 -22 415 -22 c 0
 201 -22 52 152 82 366 c 0
191 366 m 0
 169 206 273 81 430 81 c 0
 587 81 727 206 749 366 c 0
 771 526 667 650 510 650 c 0
 353 650 213 526 191 366 c 0
311 172 m 1
 365 558 l 1
 428 558 l 1
 449 558 l 1
 503 558 l 1
 514 558 l 1
 525 558 l 1
 593 555 655 521 642 427 c 0
 633 361 595 326 549 309 c 1
 616 172 l 1
 523 172 l 1
 462 297 l 1
 412 297 l 1
 395 172 l 1
 311 172 l 1
437 477 m 1
 424 378 l 1
 478 378 l 1
 489 378 l 2
 532 378 553 392 558 427 c 0
 563 462 545 477 502 477 c 2
 491 477 l 1
 437 477 l 1
EndSplineSet
EndChar

StartChar: ordfeminine
Encoding: 170 170 106
Width: 352
VWidth: 0
Flags: HW
LayerCount: 2
Fore
SplineSet
388 730 m 1
 387 719 l 1
 364 562 l 1
 302 562 l 1
 304 575 l 1
 291 566 275 560 258 558 c 1
 258 557 l 1
 247 557 l 1
 237 557 l 1
 183 560 153 587 155 633 c 1
 157 643 l 1
 158 654 l 1
 170 701 212 727 266 730 c 1
 277 730 l 1
 288 730 l 1
 326 730 l 1
 329 750 315 768 279 768 c 0
 255 768 232 763 214 749 c 2
 194 734 l 1
 204 807 l 1
 210 810 l 2
 231 820 255 826 277 827 c 1
 288 827 l 1
 299 827 l 1
 354 824 392 798 389 741 c 1
 390 741 l 1
 388 730 l 1
318 671 m 2
 318 673 l 1
 280 673 l 1
 269 673 l 2
 238 673 218 660 216 643 c 2
 214 626 224 616 255 616 c 0
 283 616 313 638 318 671 c 2
EndSplineSet
EndChar

StartChar: guillemotleft
Encoding: 171 171 107
Width: 536
VWidth: 0
Flags: HW
LayerCount: 2
Fore
SplineSet
517 222 m 5
 506 147 l 5
 269 346 l 5
 347 367 l 5
 517 222 l 5
562 546 m 5
 552 472 l 5
 341 326 l 5
 269 346 l 5
 562 546 l 5
322 222 m 5
 311 147 l 5
 74 346 l 5
 153 367 l 5
 322 222 l 5
367 546 m 5
 357 472 l 5
 147 326 l 5
 74 346 l 5
 367 546 l 5
EndSplineSet
EndChar

StartChar: logicalnot
Encoding: 172 172 108
Width: 696
VWidth: 0
Flags: HW
LayerCount: 2
Fore
SplineSet
690 309 m 1
 667 147 l 1
 591 147 l 1
 614 309 l 1
 690 309 l 1
700 384 m 1
 690 309 l 1
 95 309 l 1
 105 384 l 1
 700 384 l 1
EndSplineSet
EndChar

StartChar: uni00AD
Encoding: 173 173 109
Width: 529
VWidth: 0
Flags: HW
LayerCount: 2
Fore
SplineSet
482 384 m 5
 471 309 l 5
 146 309 l 1
 157 384 l 1
 482 384 l 5
EndSplineSet
EndChar

StartChar: macron
Encoding: 175 175 110
Width: 534
VWidth: 0
Flags: HW
LayerCount: 2
Fore
SplineSet
616 940 m 5
 606 865 l 5
 173 865 l 5
 183 940 l 5
 616 940 l 5
EndSplineSet
EndChar

StartChar: degree
Encoding: 176 176 111
Width: 566
VWidth: 0
Flags: W
HStem: 622 59<336.351 427.6> 811 60<347.587 440.336>
VStem: 264 248
LayerCount: 2
Fore
SplineSet
325 746 m 0
 320 710 344 681 379 681 c 0
 414 681 446 710 451 746 c 0
 456 782 433 811 398 811 c 0
 363 811 330 782 325 746 c 0
264 746 m 0
 274 815 337 871 406 871 c 0
 475 871 522 815 512 746 c 0
 502 677 440 622 371 622 c 0
 302 622 254 677 264 746 c 0
EndSplineSet
EndChar

StartChar: plusminus
Encoding: 177 177 112
Width: 534
VWidth: 0
Flags: HW
LayerCount: 2
Fore
SplineSet
498 96 m 1
 484 0 l 1
 51 0 l 1
 65 96 l 1
 498 96 l 1
274 406 m 1
 299 583 l 1
 400 583 l 1
 375 406 l 1
 541 406 l 1
 529 320 l 1
 363 320 l 1
 341 162 l 1
 240 162 l 1
 262 320 l 1
 96 320 l 1
 108 406 l 1
 274 406 l 1
EndSplineSet
EndChar

StartChar: paragraph
Encoding: 182 182 113
Width: 582
VWidth: 0
Flags: HW
LayerCount: 2
Fore
SplineSet
434 811 m 1xfa
 613 811 l 1
 602 735 l 1
 423 735 l 1
 434 811 l 1xfa
320 0 m 1
 434 811 l 1
 505 811 l 1
 391 0 l 1
 320 0 l 1
461 0 m 1xfc
 575 811 l 1xfa
 645 811 l 1
 531 0 l 1
 461 0 l 1xfc
375 389 m 1
 364 314 l 1
 227 314 132 425 151 562 c 0
 170 699 297 811 434 811 c 1
 423 735 l 1
 328 735 245 655 232 562 c 0
 219 469 280 389 375 389 c 1
EndSplineSet
EndChar

StartChar: periodcentered
Encoding: 183 183 114
Width: 256
VWidth: 0
Flags: HW
LayerCount: 2
Fore
SplineSet
106 316 m 0
 111 353 146 383 183 383 c 0
 220 383 245 353 240 316 c 0
 235 279 201 249 164 249 c 0
 127 249 101 279 106 316 c 0
EndSplineSet
EndChar

StartChar: guillemotright
Encoding: 187 187 115
Width: 536
VWidth: 0
Flags: HW
LayerCount: 2
Fore
SplineSet
92 472 m 5
 102 546 l 5
 339 347 l 5
 261 327 l 5
 92 472 l 5
46 147 m 5
 57 222 l 5
 266 368 l 5
 339 347 l 5
 46 147 l 5
287 472 m 5
 297 546 l 5
 534 347 l 5
 456 327 l 5
 287 472 l 5
241 147 m 5
 252 222 l 5
 461 368 l 5
 534 347 l 5
 241 147 l 5
EndSplineSet
EndChar

StartChar: ordmasculine
Encoding: 186 186 116
Width: 401
VWidth: 0
Flags: HW
LayerCount: 2
Fore
SplineSet
219 719 m 4
 212 672 242 633 290 633 c 4
 338 633 379 672 386 719 c 4
 393 766 362 806 314 806 c 4
 266 806 226 766 219 719 c 4
178 719 m 4
 188 788 251 844 320 844 c 4
 389 844 437 788 427 719 c 4
 417 650 354 595 285 595 c 4
 216 595 168 650 178 719 c 4
EndSplineSet
EndChar

StartChar: questiondown
Encoding: 191 191 117
Width: 502
VWidth: 0
Flags: HW
LayerCount: 2
Fore
SplineSet
442 460 m 4xf8
 437 423 402 393 365 393 c 4
 328 393 303 423 308 460 c 4
 313 497 347 527 384 527 c 4
 421 527 447 497 442 460 c 4xf8
166 -57 m 4
 154 -139 207 -206 291 -206 c 4
 342 -206 397 -194 439 -161 c 5
 423 -273 l 5
 377 -295 326 -306 277 -306 c 4
 140 -306 45 -194 64 -57 c 4
 83 80 210 192 347 192 c 4
 363 192 377 187 377 187 c 5
 392 89 l 5
 392 89 369 94 333 94 c 4
 259 94 178 25 166 -57 c 4
405 316 m 5xf4
 392 89 l 5
 341 110 l 5
 272 91 l 5
 315 316 l 5
 405 316 l 5xf4
EndSplineSet
EndChar

StartChar: acute
Encoding: 180 180 118
Width: 189
VWidth: 0
Flags: W
HStem: 761 212
VStem: 107 219
LayerCount: 2
Fore
SplineSet
326 973 m 1
 107 761 l 1
 202 973 l 1
 326 973 l 1
EndSplineSet
EndChar

StartChar: mu
Encoding: 181 181 119
Width: 592
VWidth: 0
Flags: HW
LayerCount: 2
Fore
SplineSet
595 487 m 1xb0
 525 -11 l 1
 422 -11 l 1x70
 430 48 l 1
 393 9 344 -19 285 -22 c 1
 274 -22 l 1
 263 -22 l 1xb0
 226 -20 197 -8 174 10 c 1x70
 142 -216 l 1
 40 -216 l 1
 104 238 l 1
 105 249 l 1
 139 487 l 1
 241 487 l 1
 189 122 l 1
 210 93 245 76 288 76 c 0
 376 76 444 149 457 238 c 2
 458 249 l 1
 492 487 l 1
 595 487 l 1xb0
EndSplineSet
EndChar

StartChar: igrave
Encoding: 236 236 157
Width: 285
VWidth: 0
Flags: HW
LayerCount: 2
Fore
SplineSet
81 0 m 5xd0
 148 476 l 5
 250 476 l 1
 183 0 l 1
 81 0 l 5xd0
EndSplineSet
Refer: 95 96 N 1 0 0 1 -77 -145 2
EndChar

StartChar: iacute
Encoding: 237 237 158
Width: 263
VWidth: 0
Flags: HW
LayerCount: 2
Fore
SplineSet
81 0 m 1
 148 476 l 1
 250 476 l 1
 183 0 l 1
 81 0 l 1
EndSplineSet
Refer: 118 180 N 1 0 0 1 101 -145 2
EndChar

StartChar: icircumflex
Encoding: 238 238 159
Width: 263
VWidth: 0
Flags: HW
LayerCount: 2
Fore
SplineSet
81 0 m 5xd0
 148 476 l 5
 250 476 l 1
 183 0 l 1
 81 0 l 5xd0
EndSplineSet
Refer: 88 94 N 1 0 0 1 -44 -10 2
EndChar

StartChar: idieresis
Encoding: 239 239 160
Width: 263
VWidth: 0
Flags: HW
LayerCount: 2
Fore
SplineSet
81 0 m 5xe8
 148 476 l 5
 250 476 l 1
 183 0 l 1
 81 0 l 5xe8
EndSplineSet
Refer: 103 168 N 1 0 0 1 -149 -277 2
EndChar

StartChar: thorn
Encoding: 254 254 173
Width: 658
VWidth: 0
Flags: HW
LayerCount: 2
Fore
SplineSet
151 -205 m 1
 48 -205 l 1
 191 811 l 1
 294 811 l 1
 239 418 l 1
 282 460 341 487 415 487 c 0
 569 487 670 375 651 238 c 0
 632 101 499 -11 345 -11 c 0
 271 -11 219 16 188 58 c 1
 151 -205 l 1
402 389 m 0
 306 389 225 320 213 238 c 0
 201 156 263 87 359 87 c 0
 455 87 536 156 548 238 c 0
 560 320 498 389 402 389 c 0
EndSplineSet
EndChar

StartChar: AE
Encoding: 198 198 174
Width: 930
VWidth: 0
Flags: HW
LayerCount: 2
Fore
SplineSet
566 0 m 1
 580 97 l 1
 958 97 l 1
 944 0 l 1
 566 0 l 1
482 633 m 1
 496 730 l 1
 1047 730 l 1
 1033 633 l 1
 482 633 l 1
612 324 m 1
 626 422 l 1
 896 422 l 1
 882 324 l 1
 612 324 l 1
485 0 m 1
 588 730 l 1
 690 730 l 5
 587 0 l 5
 485 0 l 1
14 0 m 1
 496 730 l 1
 537 694 l 1
 596 709 l 1
 122 0 l 1
 14 0 l 1
232 205 m 1
 246 303 l 1
 582 303 l 1
 568 205 l 1
 232 205 l 1
EndSplineSet
EndChar

StartChar: Oslash
Encoding: 216 216 175
Width: 834
VWidth: 0
Flags: HW
LayerCount: 2
Fore
SplineSet
200 366 m 0
 178 211 279 92 431 92 c 0
 583 92 715 211 737 366 c 0
 759 521 660 639 508 639 c 0
 356 639 222 521 200 366 c 0
253 -108 m 1
 631 811 l 1
 691 811 l 1
 313 -108 l 1
 253 -108 l 1
92 366 m 0
 121 574 314 742 522 742 c 0
 730 742 874 574 845 366 c 0
 816 158 624 -11 416 -11 c 0
 208 -11 63 158 92 366 c 0
EndSplineSet
EndChar

StartChar: oslash
Encoding: 248 248 176
Width: 578
VWidth: 0
Flags: HW
LayerCount: 2
Fore
SplineSet
177 238 m 0
 165 156 218 87 302 87 c 0
 386 87 457 156 469 238 c 0
 481 320 429 389 345 389 c 0
 261 389 189 320 177 238 c 0
74 238 m 0
 93 375 221 487 358 487 c 0
 495 487 591 375 572 238 c 0
 553 101 425 -11 288 -11 c 0
 151 -11 55 101 74 238 c 0
145 -108 m 1
 437 584 l 1
 496 584 l 1
 205 -108 l 1
 145 -108 l 1
EndSplineSet
EndChar

StartChar: Thorn
Encoding: 222 222 177
Width: 589
VWidth: 0
Flags: HW
LayerCount: 2
Fore
SplineSet
180 0 m 1
 77 0 l 1
 180 730 l 1
 283 730 l 1
 266 609 l 1
 373 609 l 1
 385 609 l 1
 397 609 l 1
 544 604 622 512 603 376 c 0
 584 240 480 148 331 143 c 1
 319 143 l 1
 307 143 l 1
 200 143 l 1
 180 0 l 1
360 519 m 1
 253 519 l 1
 213 234 l 1
 320 234 l 1
 332 234 l 2
 426 234 487 285 500 376 c 0
 513 467 466 519 372 519 c 2
 360 519 l 1
EndSplineSet
EndChar

StartChar: divide
Encoding: 247 247 178
Width: 534
VWidth: 0
Flags: HW
CounterMasks: 1 e0
LayerCount: 2
Fore
SplineSet
277 546 m 0
 282 583 316 613 353 613 c 0
 390 613 416 583 411 546 c 0
 406 509 372 479 335 479 c 0
 298 479 272 509 277 546 c 0
221 147 m 0
 226 184 260 214 297 214 c 0
 334 214 360 184 355 147 c 0
 350 110 316 80 279 80 c 0
 242 80 216 110 221 147 c 0
107 395 m 1
 540 395 l 1
 526 298 l 1
 93 298 l 1
 107 395 l 1
EndSplineSet
EndChar

StartChar: multiply
Encoding: 215 215 179
Width: 611
VWidth: 0
Flags: HW
LayerCount: 2
Fore
SplineSet
159 584 m 1
 261 584 l 1
 559 162 l 1
 457 162 l 1
 159 584 l 1
100 162 m 1
 516 584 l 1
 618 584 l 1
 202 162 l 5
 100 162 l 1
EndSplineSet
EndChar

StartChar: ae
Encoding: 230 230 180
Width: 1019
VWidth: 0
Flags: HW
LayerCount: 2
Fore
SplineSet
323 487 m 1
 411 485 467 454 485 392 c 1
 539 450 615 487 699 487 c 0
 847 487 937 374 918 237 c 0
 917 229 915 220 915 220 c 2
 913 211 l 1
 867 211 l 1
 809 211 l 1
 501 211 l 1
 504 142 561 87 643 87 c 0
 701 87 763 105 803 144 c 2
 813 154 l 1
 857 77 l 1
 849 71 l 2
 788 21 706 -11 629 -11 c 0
 538 -11 470 33 433 99 c 1
 394 39 325 -7 248 -11 c 1
 236 -11 l 1
 225 -11 l 1
 109 -8 53 43 61 136 c 1
 60 136 l 1
 61 146 l 1
 63 156 l 1
 64 156 l 1
 82 250 164 300 280 303 c 1
 292 303 l 1
 303 303 l 1
 404 303 l 1
 406 312 l 2
 412 354 377 389 299 389 c 0
 247 389 195 380 157 350 c 2
 137 334 l 1
 153 449 l 1
 159 452 l 2
 203 473 252 484 301 486 c 1
 301 487 l 1
 312 487 l 1
 323 487 l 1
159 146 m 2
 153 106 183 87 250 87 c 0
 313 87 380 129 389 196 c 2
 392 211 l 1
 291 211 l 1
 280 211 l 2
 213 211 164 185 159 146 c 2
686 389 m 0
 618 389 556 353 524 303 c 1
 813 303 l 1
 799 354 754 389 686 389 c 0
EndSplineSet
EndChar

StartChar: Eth
Encoding: 208 208 181
Width: 765
VWidth: 0
Flags: HW
LayerCount: 2
Fore
SplineSet
126 319 m 1
 45 319 l 1
 57 406 l 1
 138 406 l 1
 184 730 l 1
 267 730 l 1
 289 730 l 1
 418 730 l 1
 429 730 l 1
 440 730 l 1
 657 725 806 570 777 366 c 0
 748 162 556 5 337 0 c 1
 326 0 l 1
 315 0 l 1
 186 0 l 1
 164 0 l 1
 81 0 l 1
 126 319 l 1
231 319 m 1
 200 103 l 1
 329 103 l 1
 340 103 l 2
 505 103 647 213 669 366 c 0
 691 519 580 627 414 627 c 2
 403 627 l 1
 274 627 l 1
 243 406 l 1
 470 406 l 1
 458 319 l 1
 231 319 l 1
EndSplineSet
EndChar

StartChar: eth
Encoding: 240 240 182
Width: 660
VWidth: 0
Flags: HW
LayerCount: 2
Fore
SplineSet
585 587 m 1
 620 511 640 414 623 292 c 0
 596 103 463 -11 308 -11 c 0
 155 -11 55 101 74 238 c 0
 93 375 225 487 378 487 c 0
 441 487 490 467 523 434 c 1
 513 486 493 533 469 574 c 1
 226 546 l 1
 236 621 l 1
 420 642 l 1
 337 741 239 791 239 791 c 2
 201 811 l 1
 369 811 l 1
 371 810 l 2
 372 809 469 763 545 656 c 1
 720 677 l 1
 710 603 l 1
 585 587 l 1
508 228 m 1
 511 239 l 1
 522 320 460 389 365 389 c 0
 270 389 189 320 177 238 c 0
 165 156 227 87 322 87 c 0
 413 87 493 151 510 228 c 1
 508 228 l 1
EndSplineSet
EndChar

